<svg width="38" height="36" viewBox="0 0 38 36" fill="none" xmlns="http://www.w3.org/2000/svg">
<path d="M33.4257 3H6.75907C5.28631 3 4.09241 4.24365 4.09241 5.77778V25.2222C4.09241 26.7563 5.28631 28 6.75907 28H33.4257C34.8985 28 36.0924 26.7563 36.0924 25.2222V5.77778C36.0924 4.24365 34.8985 3 33.4257 3Z" stroke="#21E786" stroke-width="2.5" stroke-linecap="round" stroke-linejoin="round"/>
<path d="M4.09241 14H13.5607C13.8679 13.9999 14.1656 14.0995 14.4035 14.2817C14.6413 14.4639 14.8046 14.7177 14.8657 14.9999C15.1118 16.1292 15.7665 17.1441 16.7189 17.873C17.6712 18.6019 18.863 19 20.0924 19C21.3219 19 22.5136 18.6019 23.466 17.873C24.4184 17.1441 25.073 16.1292 25.3191 14.9999C25.3802 14.7177 25.5435 14.4639 25.7814 14.2817C26.0192 14.0995 26.3169 13.9999 26.6241 14H36.0924" stroke="#21E786" stroke-width="2.5" stroke-linecap="round" stroke-linejoin="round"/>
<path d="M4.09241 8H36.0924" stroke="#21E786" stroke-width="2.5" stroke-linecap="round" stroke-linejoin="round"/>
</svg>
