<svg width="36" height="36" viewBox="0 0 36 36" fill="none" xmlns="http://www.w3.org/2000/svg">
<path d="M30.1001 6V5.9H30.0001H12.0001H11.9001V6V24V24.1H12.0001H30.0001H30.1001V24V6ZM19.8632 20.9575L23.5051 16.4052L28.2923 22.4H13.7002L17.25 17.6718L19.705 20.9549L19.7825 21.0584L19.8632 20.9575ZM5.90012 30V30.1H6.00012H26.9001V32.9H6.00012C4.40535 32.9 3.10012 31.5948 3.10012 30V9.1H5.90012V30ZM12.0001 3.1H30.0001C31.5949 3.1 32.9001 4.40523 32.9001 6V24C32.9001 25.5948 31.5949 26.9 30.0001 26.9H12.0001C10.4054 26.9 9.10012 25.5948 9.10012 24V6C9.10012 4.40523 10.4054 3.1 12.0001 3.1Z" fill="#21E786" stroke="#0B0F13" stroke-width="0.2"/>
</svg>
