<svg width="36" height="36" viewBox="0 0 36 36" fill="none" xmlns="http://www.w3.org/2000/svg">
<path d="M21.3751 15.1875H25.8751" stroke="#21E786" stroke-width="2.5" stroke-linecap="round" stroke-linejoin="round"/>
<path d="M10.1251 15.1875H14.6251" stroke="#21E786" stroke-width="2.5" stroke-linecap="round" stroke-linejoin="round"/>
<path d="M12.3751 12.9375V17.4375" stroke="#21E786" stroke-width="2.5" stroke-linecap="round" stroke-linejoin="round"/>
<path d="M24.1902 7.83838L11.8132 7.87497C10.094 7.8751 8.42971 8.48082 7.11258 9.5858C5.79545 10.6908 4.90963 12.2244 4.61062 13.9174L4.61182 13.9177L2.31057 25.7531C2.16522 26.5778 2.28655 27.4273 2.65694 28.1783C3.02733 28.9293 3.62749 29.5427 4.37026 29.9294C5.11303 30.3161 5.95973 30.4559 6.78738 30.3286C7.61503 30.2012 8.38054 29.8134 8.97272 29.2213L15.0525 22.5L24.1902 22.4634C26.1296 22.4634 27.9895 21.693 29.3609 20.3216C30.7322 18.9502 31.5027 17.0903 31.5027 15.1509C31.5027 13.2115 30.7322 11.3515 29.3609 9.98016C27.9895 8.6088 26.1296 7.83838 24.1902 7.83838Z" stroke="#21E786" stroke-width="2.5" stroke-linecap="round" stroke-linejoin="round"/>
<path d="M31.3916 13.8811L33.691 25.7531C33.8363 26.5778 33.715 27.4273 33.3446 28.1783C32.9742 28.9294 32.374 29.5428 31.6313 29.9294C30.8885 30.3161 30.0418 30.4559 29.2142 30.3286C28.3865 30.2013 27.621 29.8134 27.0288 29.2213L27.029 29.2211L20.9532 22.4764" stroke="#21E786" stroke-width="2.5" stroke-linecap="round" stroke-linejoin="round"/>
</svg>
